<?xml version="1.0" encoding="UTF-8" standalone="no"?>
<!-- Created with Inkscape (http://www.inkscape.org/) -->

<svg
   width="48"
   height="48"
   viewBox="0 0 48 48"
   version="1.1"
   id="svg1"
   xml:space="preserve"
   inkscape:export-filename="STARZ_R_WHITE.svg"
   inkscape:export-xdpi="96"
   inkscape:export-ydpi="96"
   xmlns:inkscape="http://www.inkscape.org/namespaces/inkscape"
   xmlns:sodipodi="http://sodipodi.sourceforge.net/DTD/sodipodi-0.dtd"
   xmlns="http://www.w3.org/2000/svg"
   xmlns:svg="http://www.w3.org/2000/svg"><sodipodi:namedview
     id="namedview1"
     pagecolor="#ffffff"
     bordercolor="#000000"
     borderopacity="0.25"
     inkscape:showpageshadow="2"
     inkscape:pageopacity="0.0"
     inkscape:pagecheckerboard="0"
     inkscape:deskcolor="#d1d1d1"
     inkscape:document-units="px"
     inkscape:zoom="6.109375"
     inkscape:cx="9.1662404"
     inkscape:cy="39.202046"
     inkscape:window-width="2560"
     inkscape:window-height="1369"
     inkscape:window-x="1912"
     inkscape:window-y="-8"
     inkscape:window-maximized="1"
     inkscape:current-layer="layer1" /><defs
     id="defs1" /><g
     inkscape:label="Layer 1"
     inkscape:groupmode="layer"
     id="layer1"><path
       style="fill:#ffffff;fill-opacity:1;stroke:none;stroke-width:0;stroke-dasharray:none"
       d="m -392.83079,45.021613 -0.17683,-2.978389 -0.3981,-1.371248 c -0.50415,-1.736614 -1.25485,-2.713965 -2.49523,-3.248559 l -0.97758,-0.421325 -3.0736,-0.280979 c -5.34824,-0.488917 -5.53319,-0.677186 -1.03559,-1.054234 1.67206,-0.140174 3.64633,-0.439695 4.38726,-0.665603 l 1.34714,-0.41074 0.69986,-0.758283 0.69986,-0.758284 0.41848,-1.461655 0.41847,-1.461655 0.17976,-2.844435 c 0.21294,-3.369165 0.5275,-3.673617 0.74965,-0.725563 0.0879,1.165377 0.33864,3.041602 0.55737,4.169386 l 0.39771,2.050519 0.48494,0.683506 c 0.26672,0.375928 0.91504,0.902515 1.44073,1.170191 l 0.95578,0.486684 2.23421,0.265416 c 1.22882,0.145979 2.9274,0.335882 3.77462,0.422008 l 1.54042,0.156591 -0.15301,0.25327 -0.15302,0.253268 h -1.39441 c -0.76693,0 -2.39959,0.12893 -3.62815,0.286513 l -2.23373,0.286513 -0.99249,0.517944 c -1.74445,0.910371 -2.23334,2.174394 -2.69755,6.974401 -0.15996,1.654085 -0.38294,3.105461 -0.49549,3.225279 L -392.65395,48 Z M 35.870666,42.287588 35.693835,39.3092 35.295753,37.93795 c -0.504152,-1.736611 -1.254865,-2.713964 -2.495248,-3.248558 l -0.977574,-0.421325 -3.073602,-0.280979 c -5.348241,-0.488918 -5.533186,-0.677185 -1.035591,-1.054233 1.672057,-0.140175 3.646326,-0.439695 4.387263,-0.665602 l 1.347147,-0.410741 0.699851,-0.758285 0.699862,-0.758283 0.418478,-1.461654 0.418467,-1.461655 0.179767,-2.844434 c 0.212938,-3.369168 0.527493,-3.673619 0.74965,-0.725566 0.08777,1.165379 0.338633,3.041603 0.55737,4.169388 l 0.397704,2.050518 0.484945,0.683506 c 0.266714,0.37593 0.915042,0.902515 1.440725,1.17019 l 0.955779,0.486684 2.234216,0.265417 c 1.228818,0.14598 2.927396,0.335883 3.774622,0.422009 L 48,33.250938 47.846985,33.504207 47.693969,33.757474 H 46.29956 c -0.76693,0 -2.399587,0.128932 -3.628142,0.286515 l -2.233743,0.286513 -0.992486,0.517944 c -1.744451,0.910371 -2.233343,2.174393 -2.697546,6.974401 -0.159961,1.654085 -0.382939,3.10546 -0.49549,3.225278 l -0.204646,0.217852 z M -379.47891,40.31527 c -0.0817,-0.373803 -0.27713,-2.586625 -0.43443,-4.91738 -0.75923,-11.24865 -2.43819,-12.8991 -13.75794,-13.524276 -7.01494,-0.387428 -6.52136,-0.899767 1.46999,-1.525868 10.08616,-0.790224 11.54521,-2.379381 12.28795,-13.3837112 0.1573,-2.3307566 0.3528,-4.543577 0.43443,-4.9173799 l 0.14841,-0.6796418 0.25263,0.4617806 c 0.13894,0.2539796 0.37517,2.1592225 0.52494,4.2338745 0.46568,6.4505328 1.02756,9.0529698 2.3612,10.9362338 l 0.78042,1.102068 1.15992,0.572695 c 0.63795,0.314983 1.88154,0.758667 2.76354,0.985964 l 1.60361,0.413268 4.76533,0.384414 4.76532,0.384414 0.27824,0.284621 0.27824,0.284622 -1.16814,0.149065 c -0.64248,0.08199 -2.88841,0.278995 -4.99095,0.437802 -4.5262,0.341868 -6.11053,0.651387 -8.02274,1.567349 l -1.42201,0.681149 -0.78561,1.109379 c -1.33906,1.890934 -1.90016,4.48584 -2.36637,10.943545 -0.14977,2.074651 -0.386,3.979893 -0.52494,4.233872 l -0.25263,0.461783 z M 21.960984,38.948258 C 21.87932,38.574454 21.683862,36.361633 21.526553,34.030878 20.767326,22.782227 19.088365,21.131778 7.768613,20.506601 0.753682,20.119174 1.247257,19.606834 9.238594,18.980734 19.324771,18.19051 20.783817,16.601353 21.526553,5.5970218 21.683862,3.2662662 21.879362,1.0534458 21.960984,0.67964188 L 22.109401,0 22.362024,0.46178173 c 0.138945,0.25397958 0.375172,2.15922247 0.524946,4.23387347 0.465677,6.4505328 1.027562,9.0529698 2.361186,10.9362338 l 0.780432,1.102069 1.159919,0.572695 c 0.637951,0.314982 1.881544,0.758667 2.76353,0.985964 l 1.603622,0.413268 4.76533,0.384414 4.765318,0.384413 0.278238,0.284622 0.278238,0.284622 -1.168138,0.149063 c -0.642486,0.08199 -2.888405,0.278997 -4.990948,0.437804 -4.526198,0.341867 -6.11053,0.651387 -8.02274,1.567349 l -1.422014,0.681148 -0.785609,1.10938 c -1.339055,1.890934 -1.900161,4.48584 -2.366364,10.943545 -0.149774,2.074651 -0.386001,3.979893 -0.524946,4.233872 L 22.109401,39.6279 Z"
       id="path2" /></g></svg>
