<?xml version="1.0" encoding="UTF-8" standalone="no"?>
<!-- Created with Inkscape (http://www.inkscape.org/) -->

<svg
   width="48"
   height="48"
   viewBox="0 0 48 48"
   version="1.1"
   id="svg1"
   xml:space="preserve"
   inkscape:export-filename="STARZ_R_WHITE.svg"
   inkscape:export-xdpi="96"
   inkscape:export-ydpi="96"
   xmlns:inkscape="http://www.inkscape.org/namespaces/inkscape"
   xmlns:sodipodi="http://sodipodi.sourceforge.net/DTD/sodipodi-0.dtd"
   xmlns="http://www.w3.org/2000/svg"
   xmlns:svg="http://www.w3.org/2000/svg"><sodipodi:namedview
     id="namedview1"
     pagecolor="#ffffff"
     bordercolor="#000000"
     borderopacity="0.25"
     inkscape:showpageshadow="2"
     inkscape:pageopacity="0.0"
     inkscape:pagecheckerboard="0"
     inkscape:deskcolor="#d1d1d1"
     inkscape:document-units="px"
     inkscape:zoom="6.109375"
     inkscape:cx="9.1662404"
     inkscape:cy="39.202046"
     inkscape:window-width="2560"
     inkscape:window-height="1369"
     inkscape:window-x="1912"
     inkscape:window-y="-8"
     inkscape:window-maximized="1"
     inkscape:current-layer="layer1" /><defs
     id="defs1" /><g
     inkscape:label="Layer 1"
     inkscape:groupmode="layer"
     id="layer1"><path
       style="fill:#ffffff;fill-opacity:1;stroke:none;stroke-width:0;stroke-dasharray:none"
       d="m 11.345524,45.021613 -0.17683,-2.978389 -0.3981,-1.371248 C 10.266444,38.935362 9.5157441,37.958011 8.2753641,37.423417 l -0.97758,-0.421325 -3.0736,-0.280979 c -5.34824,-0.488917 -5.53319,-0.677186 -1.03559,-1.054234 1.67206,-0.140174 3.64633,-0.439695 4.38726,-0.665603 l 1.34714,-0.41074 0.69986,-0.758283 0.6998599,-0.758284 0.41848,-1.461655 0.41847,-1.461655 0.17976,-2.844435 c 0.21294,-3.369165 0.5275,-3.673617 0.74965,-0.725563 0.0879,1.165377 0.33864,3.041602 0.55737,4.169386 l 0.39771,2.050519 0.48494,0.683506 c 0.26672,0.375928 0.91504,0.902515 1.44073,1.170191 l 0.95578,0.486684 2.23421,0.265416 c 1.22882,0.145979 2.9274,0.335882 3.77462,0.422008 l 1.54042,0.156591 -0.15301,0.25327 -0.15302,0.253268 h -1.39441 c -0.76693,0 -2.39959,0.12893 -3.62815,0.286513 l -2.23373,0.286513 -0.99249,0.517944 c -1.74445,0.910371 -2.23334,2.174394 -2.69755,6.974401 -0.15996,1.654085 -0.38294,3.105461 -0.49549,3.225279 L 11.522364,48 Z M 440.04697,42.287588 439.87014,39.3092 439.47206,37.93795 c -0.50415,-1.736611 -1.25487,-2.713964 -2.49525,-3.248558 l -0.97757,-0.421325 -3.07361,-0.280979 c -5.34824,-0.488918 -5.53318,-0.677185 -1.03559,-1.054233 1.67206,-0.140175 3.64633,-0.439695 4.38727,-0.665602 l 1.34714,-0.410741 0.69985,-0.758285 0.69987,-0.758283 0.41847,-1.461654 0.41847,-1.461655 0.17977,-2.844434 c 0.21294,-3.369168 0.52749,-3.673619 0.74965,-0.725566 0.0878,1.165379 0.33863,3.041603 0.55737,4.169388 l 0.3977,2.050518 0.48495,0.683506 c 0.26671,0.37593 0.91504,0.902515 1.44072,1.17019 l 0.95578,0.486684 2.23422,0.265417 c 1.22882,0.14598 2.92739,0.335883 3.77462,0.422009 l 1.54042,0.156591 -0.15302,0.253269 -0.15302,0.253267 h -1.3944 c -0.76693,0 -2.39959,0.128932 -3.62815,0.286515 l -2.23374,0.286513 -0.99249,0.517944 c -1.74445,0.910371 -2.23334,2.174393 -2.69754,6.974401 -0.15996,1.654085 -0.38294,3.10546 -0.49549,3.225278 l -0.20465,0.217852 z M 24.697404,40.31527 c -0.0817,-0.373803 -0.27713,-2.586625 -0.43443,-4.91738 -0.75923,-11.24865 -2.43819,-12.8991 -13.75794,-13.524276 -7.0149399,-0.387428 -6.5213599,-0.899767 1.46999,-1.525868 10.08616,-0.790224 11.54521,-2.379381 12.28795,-13.383711 0.1573,-2.330757 0.3528,-4.543577 0.43443,-4.91738 l 0.14841,-0.679642 0.25263,0.461781 c 0.13894,0.253979 0.37517,2.159222 0.52494,4.233874 0.46568,6.450533 1.02756,9.05297 2.3612,10.936234 l 0.78042,1.102068 1.15992,0.572695 c 0.63795,0.314983 1.88154,0.758667 2.76354,0.985964 l 1.60361,0.413268 4.76533,0.384414 4.76532,0.384414 0.27824,0.284621 0.27824,0.284622 -1.16814,0.149065 c -0.64248,0.08199 -2.88841,0.278995 -4.99095,0.437802 -4.5262,0.341868 -6.11053,0.651387 -8.02274,1.567349 l -1.42201,0.681149 -0.78561,1.109379 c -1.33906,1.890934 -1.90016,4.48584 -2.36637,10.943545 -0.14977,2.074651 -0.386,3.979893 -0.52494,4.233872 l -0.25263,0.461783 z M 426.13729,38.948258 c -0.0817,-0.373804 -0.27712,-2.586625 -0.43443,-4.91738 -0.75923,-11.248651 -2.43819,-12.8991 -13.75794,-13.524277 -7.01493,-0.387427 -6.52136,-0.899767 1.46998,-1.525867 10.08618,-0.790224 11.54522,-2.379381 12.28796,-13.383712 0.15731,-2.330756 0.35281,-4.543576 0.43443,-4.91738 L 426.28571,0 l 0.25262,0.461782 c 0.13894,0.253979 0.37517,2.159222 0.52495,4.233873 0.46567,6.450533 1.02756,9.05297 2.36118,10.936234 l 0.78043,1.102069 1.15992,0.572695 c 0.63795,0.314982 1.88155,0.758667 2.76353,0.985964 l 1.60362,0.413268 4.76533,0.384414 4.76532,0.384413 0.27824,0.284622 0.27824,0.284622 -1.16814,0.149063 c -0.64249,0.08199 -2.8884,0.278997 -4.99095,0.437804 -4.5262,0.341867 -6.11053,0.651387 -8.02274,1.567349 l -1.42201,0.681148 -0.78561,1.10938 c -1.33906,1.890934 -1.90016,4.48584 -2.36636,10.943545 -0.14978,2.074651 -0.38601,3.979893 -0.52495,4.233872 l -0.25262,0.461783 z"
       id="path2" /></g></svg>
